<svg width="108" height="109" viewBox="0 0 108 109" fill="none" xmlns="http://www.w3.org/2000/svg">
<path d="M54.0041 12.4167C30.9833 12.4167 12.3374 31.249 12.3374 54.5C12.3299 63.3345 15.0781 71.947 20.1918 79.1145C25.3055 86.282 32.5249 91.6404 40.8249 94.4287C42.9083 94.7948 43.6916 93.5323 43.6916 92.4255C43.6916 91.4281 43.6374 88.1162 43.6374 84.5896C33.1707 86.538 30.4624 82.0141 29.6291 79.6448C29.1583 78.4328 27.1291 74.7 25.3583 73.6984C23.8999 72.9115 21.8166 70.963 25.3041 70.9125C28.5874 70.8578 30.9291 73.9635 31.7124 75.226C35.4624 81.589 41.4499 79.8005 43.8457 78.6979C44.2124 75.9625 45.3041 74.1235 46.5041 73.0714C37.2333 72.0193 27.5458 68.3875 27.5458 52.2906C27.5458 47.712 29.1583 43.9287 31.8166 40.9828C31.3999 39.9308 29.9416 35.6172 32.2333 29.8308C32.2333 29.8308 35.7208 28.724 43.6916 34.1401C47.0839 33.1917 50.5884 32.7146 54.1082 32.7219C57.6499 32.7219 61.1916 33.1932 64.5249 34.1401C72.4957 28.6693 75.9832 29.8308 75.9832 29.8308C78.2749 35.6172 76.8166 39.9308 76.3999 40.9828C79.0541 43.9287 80.6707 47.6615 80.6707 52.2906C80.6707 68.4422 70.9332 72.0193 61.6624 73.0714C63.1707 74.3844 64.4749 76.9094 64.4749 80.8568C64.4749 86.4833 64.4207 91.0073 64.4207 92.4297C64.4207 93.5323 65.2041 94.8453 67.2874 94.4245C75.5562 91.6011 82.741 86.2312 87.8314 79.0699C92.9219 71.9085 95.662 63.3158 95.6666 54.5C95.6666 31.249 77.0207 12.4167 53.9999 12.4167" fill="#2A2220"/>
</svg>
