<svg width="109" height="109" viewBox="0 0 109 109" fill="none" xmlns="http://www.w3.org/2000/svg">
<path d="M54.5051 39.35C50.487 39.35 46.6336 40.9462 43.7924 43.7873C40.9512 46.6285 39.3551 50.482 39.3551 54.5C39.3551 58.518 40.9512 62.3715 43.7924 65.2127C46.6336 68.0538 50.487 69.65 54.5051 69.65C58.5231 69.65 62.3765 68.0538 65.2177 65.2127C68.0589 62.3715 69.6551 58.518 69.6551 54.5C69.6551 50.482 68.0589 46.6285 65.2177 43.7873C62.3765 40.9462 58.5231 39.35 54.5051 39.35ZM54.5051 29.25C61.2018 29.25 67.6242 31.9103 72.3595 36.6456C77.0948 41.3808 79.7551 47.8033 79.7551 54.5C79.7551 61.1967 77.0948 67.6192 72.3595 72.3544C67.6242 77.0897 61.2018 79.75 54.5051 79.75C47.8083 79.75 41.3859 77.0897 36.6506 72.3544C31.9153 67.6192 29.2551 61.1967 29.2551 54.5C29.2551 47.8033 31.9153 41.3808 36.6506 36.6456C41.3859 31.9103 47.8083 29.25 54.5051 29.25ZM87.3301 27.9875C87.3301 29.6617 86.665 31.2673 85.4812 32.4511C84.2973 33.6349 82.6917 34.3 81.0176 34.3C79.3434 34.3 77.7378 33.6349 76.5539 32.4511C75.3701 31.2673 74.705 29.6617 74.705 27.9875C74.705 26.3133 75.3701 24.7077 76.5539 23.5239C77.7378 22.3401 79.3434 21.675 81.0176 21.675C82.6917 21.675 84.2973 22.3401 85.4812 23.5239C86.665 24.7077 87.3301 26.3133 87.3301 27.9875ZM54.5051 14.1C42.0114 14.1 39.9712 14.1354 34.1586 14.3929C30.1994 14.5798 27.5431 15.11 25.0787 16.0695C23.0175 16.8289 21.1534 18.0422 19.6247 19.6197C18.0454 21.1479 16.8303 23.0119 16.0695 25.0737C15.11 27.5482 14.5798 30.1994 14.398 34.1536C14.1354 39.7288 14.1 41.6781 14.1 54.5C14.1 66.9988 14.1354 69.0339 14.3929 74.8464C14.5798 78.8006 15.11 81.462 16.0645 83.9213C16.923 86.1181 17.933 87.6987 19.6096 89.3753C21.3114 91.0721 22.8921 92.0871 25.0636 92.9254C27.5583 93.89 30.2146 94.4253 34.1536 94.6071C39.7288 94.8697 41.6781 94.9 54.5 94.9C66.9988 94.9 69.0339 94.8647 74.8464 94.6071C78.7955 94.4203 81.4519 93.89 83.9213 92.9356C85.9825 92.1762 87.8466 90.9629 89.3753 89.3854C91.0772 87.6886 92.0922 86.1079 92.9305 83.9314C93.89 81.4468 94.4253 78.7905 94.6071 74.8414C94.8697 69.2713 94.9 67.3169 94.9 54.5C94.9 42.0063 94.8647 39.9661 94.6071 34.1536C94.4203 30.2045 93.885 27.5381 92.9305 25.0737C92.1711 23.0124 90.9578 21.1484 89.3804 19.6197C87.8521 18.0404 85.9881 16.8253 83.9264 16.0645C81.4519 15.105 78.7955 14.5747 74.8464 14.3929C69.2763 14.1303 67.327 14.1 54.5 14.1M54.5 4C68.2209 4 69.9328 4.0505 75.3211 4.303C80.6943 4.5555 84.3606 5.39885 87.5775 6.65125C90.9105 7.93395 93.7183 9.67115 96.5261 12.4739C99.095 14.9975 101.082 18.0515 102.349 21.4225C103.596 24.6393 104.445 28.3056 104.697 33.6839C104.934 39.0672 105 40.7792 105 54.5C105 68.2209 104.95 69.9328 104.697 75.3161C104.445 80.6994 103.596 84.3556 102.349 87.5775C101.082 90.9485 99.095 94.0025 96.5261 96.5261C94.0025 99.095 90.9485 101.082 87.5775 102.349C84.3606 103.596 80.6943 104.445 75.3211 104.697C69.9328 104.934 68.2209 105 54.5 105C40.7792 105 39.0672 104.95 33.6789 104.697C28.3057 104.445 24.6444 103.596 21.4225 102.349C18.0515 101.082 14.9975 99.095 12.4739 96.5261C9.905 94.0025 7.91787 90.9485 6.65125 87.5775C5.39885 84.3606 4.5555 80.6944 4.303 75.3161C4.0606 69.9328 4 68.2209 4 54.5C4 40.7792 4.0505 39.0672 4.303 33.6839C4.5555 28.3006 5.39885 24.6444 6.65125 21.4225C7.91787 18.0515 9.905 14.9975 12.4739 12.4739C14.9975 9.905 18.0515 7.91787 21.4225 6.65125C24.6393 5.39885 28.3006 4.5555 33.6789 4.303C39.0723 4.06565 40.7842 4 54.5051 4" fill="#2A2220"/>
</svg>
