<svg width="108" height="109" viewBox="0 0 108 109" fill="none" xmlns="http://www.w3.org/2000/svg">
<path d="M32.9167 25.0417C32.9156 27.2739 32.0365 29.4143 30.4729 30.9919C28.9094 32.5696 26.7893 33.4552 24.5792 33.4541C22.369 33.453 20.2499 32.5652 18.6878 30.986C17.1258 29.4067 16.2489 27.2655 16.25 25.0332C16.2511 22.801 17.1301 20.6606 18.6937 19.083C20.2573 17.5054 22.3774 16.6197 24.5875 16.6208C26.7976 16.6219 28.9168 17.5097 30.4788 19.0889C32.0409 20.6682 32.9178 22.8094 32.9167 25.0417ZM33.1667 39.6867H16.5V92.375H33.1667V39.6867ZM59.5 39.6867H42.9167V92.375H59.3333V64.7262C59.3333 49.3237 79.2083 47.8929 79.2083 64.7262V92.375H95.6667V59.0029C95.6667 33.0375 66.25 34.0054 59.3333 46.7567L59.5 39.6867Z" fill="#2A2220"/>
</svg>
