<svg width="44" height="28" viewBox="0 0 44 28" fill="none" xmlns="http://www.w3.org/2000/svg">
<path d="M8.81121 12.8145C8.79947 12.7635 8.77511 12.7162 8.74028 12.6766C8.70545 12.6371 8.66124 12.6066 8.61156 12.5879C8.3032 12.4576 7.98182 12.3595 7.65266 12.295C7.58798 12.599 7.52612 12.903 7.49237 13.2097C7.38151 14.3871 7.03661 15.5316 6.47723 16.5784C5.66174 18.0375 4.79001 19.4663 3.5471 20.6407C2.96493 21.1821 2.56634 21.8865 2.40541 22.6581C2.262 23.3269 2.02579 23.9763 1.84301 24.6395C1.7652 24.8929 1.73006 25.1571 1.73896 25.4216C1.77271 25.9356 2.19732 26.2009 2.65287 25.9743C3.00776 25.7955 3.32166 25.5472 3.57522 25.2447C4.01438 24.7068 4.58932 24.2914 5.24275 24.0398C5.62518 23.9131 5.95047 23.6589 6.16228 23.3213C6.34225 23.0035 6.64876 22.9262 6.96652 22.8046C7.59293 22.5854 8.19653 22.3078 8.76903 21.9755C10.3269 21.0111 11.4686 19.668 12.4528 18.1868C12.1266 17.7722 11.7948 17.3577 11.4517 16.9708C10.1329 15.473 9.323 14.1852 8.81121 12.8145Z" fill="#2A2220"/>
<path d="M27.7362 19.6183C27.2083 19.7046 26.6741 19.749 26.1389 19.7509C25.4681 19.7549 24.7997 19.6722 24.1508 19.505C24.1283 19.762 24.1115 20.019 24.0974 20.2732C24.0046 21.7434 23.9315 23.2136 23.9259 24.6948C23.9463 24.9696 23.8814 25.244 23.7398 25.4818C23.5982 25.7196 23.3866 25.9096 23.1329 26.0268C22.6736 26.2909 22.2339 26.5864 21.8169 26.9111C21.6144 27.0659 21.3388 27.2925 21.5357 27.5578C21.6566 27.7264 21.9687 27.7651 22.1346 27.8341C23.9765 27.5578 25.7171 27.2814 27.4606 27.0189C27.6594 26.9963 27.8445 26.9079 27.9855 26.7683C28.1265 26.6287 28.2151 26.4462 28.2367 26.2507C28.2986 25.9743 28.3098 25.6676 28.3661 25.3802C28.4603 24.768 28.5908 24.1618 28.7569 23.5645C29.2043 22.1914 29.832 20.8816 30.6241 19.668C30.8407 19.3392 31.0544 19.0103 31.2681 18.6814L30.9588 18.4051C29.9741 19.0096 28.8798 19.4215 27.7362 19.6183Z" fill="#2A2220"/>
<path d="M14.7135 28L12.3992 27.7679C12.2668 27.7532 12.1366 27.7235 12.0111 27.6794C11.9646 27.664 11.9231 27.6369 11.8905 27.6008C11.858 27.5647 11.8357 27.5209 11.8257 27.4736C11.8158 27.4264 11.8186 27.3775 11.8338 27.3316C11.8491 27.2858 11.8763 27.2447 11.9127 27.2124C12.3098 26.9178 12.7249 26.6474 13.1556 26.4027C13.4546 26.2586 13.7649 26.1385 14.0836 26.0434C14.2951 25.9832 14.4808 25.8566 14.6123 25.6829C14.7438 25.5093 14.8139 25.2982 14.8119 25.0817C14.8372 23.4236 14.9891 21.7407 14.5054 20.1075C14.3613 19.5356 14.1106 18.9949 13.7658 18.5129C13.2203 17.8082 12.6776 17.1008 12.0786 16.432C11.0167 15.294 10.1743 13.9755 9.59279 12.541C9.54218 12.3861 9.45822 12.2437 9.34662 12.1235C9.23501 12.0034 9.09838 11.9082 8.94602 11.8446C8.04336 11.4467 7.07602 11.3637 6.11431 11.2919C5.84966 11.3148 5.59096 11.3821 5.34944 11.4909C4.15432 11.8391 3.53287 11.6456 2.8861 10.6204C2.69655 10.3138 2.41858 10.0695 2.08748 9.91844C1.47905 9.64396 0.943823 9.23433 0.523995 8.72184C0.287589 8.44151 0.124332 8.10875 0.0483799 7.75239C-0.0275727 7.39604 -0.0139281 7.02686 0.0881306 6.67686C0.220296 6.12416 0.315905 5.57146 0.470567 5.04916C0.616146 4.57801 0.616146 4.075 0.470567 3.60385C0.360354 3.22705 0.299869 2.83789 0.290597 2.44594C0.290521 2.15276 0.349786 1.86249 0.464942 1.59202C0.687093 1.05314 1.02735 0.923256 1.58975 1.09736C1.6541 1.11334 1.71637 1.13652 1.77535 1.16644C2.54022 1.62242 3.29103 1.59755 4.14589 1.3516C4.82625 1.19458 5.52731 1.14238 6.22398 1.19684C6.75403 1.23266 7.28309 1.11445 7.74529 0.856932C8.23458 0.580582 8.76043 0.345685 9.33971 0.715993C9.41242 0.746756 9.49141 0.760521 9.57046 0.756206C9.6495 0.75189 9.72645 0.729611 9.79525 0.691122C11.131 -0.223595 12.5707 -0.0826571 14.033 0.273834C14.8428 0.464643 15.6257 0.752352 16.3642 1.13052C18.715 2.32159 18.0514 2.18341 20.6328 1.83245C21.887 1.65558 23.1327 1.41239 24.3869 1.25764C26.8024 0.961945 29.1842 1.09183 31.4872 1.94575C32.7049 2.3962 33.9112 2.86876 35.1232 3.3275C35.7342 3.55426 36.2877 3.90902 36.7451 4.36716C37.2025 4.82529 37.553 5.37581 37.7721 5.98045C37.8375 6.13137 37.8893 6.28765 37.9268 6.44749C38.0308 6.97808 37.9268 7.19363 37.415 7.48103C36.9032 7.76844 36.8863 7.78502 37.2378 8.2631C37.5893 8.74119 37.938 9.13637 38.2811 9.58129C38.6442 10.0077 38.9795 10.4563 39.285 10.9244C40.0296 12.1091 40.2917 13.5263 40.0189 14.8927C39.8839 15.5372 39.8856 16.2022 40.024 16.846C40.1624 17.4899 40.4345 18.0987 40.8232 18.6345C41.1791 19.1867 41.4931 19.764 41.7624 20.3617C42.1561 21.1907 42.4795 22.053 42.8872 22.8792C43.0083 23.1321 43.0652 23.41 43.0529 23.6892C43.0407 23.9683 42.9597 24.2404 42.8169 24.4821C42.4598 25.184 42.052 25.8638 41.6612 26.5492C41.5789 26.7108 41.4537 26.8476 41.2987 26.9449C41.1437 27.0422 40.9648 27.0965 40.781 27.1019C39.7152 27.171 38.6523 27.2539 37.5893 27.3285C37.458 27.3492 37.3242 27.3492 37.1928 27.3285C37.0665 27.3079 36.9534 27.2394 36.8779 27.1378C36.8685 27.0783 36.8741 27.0175 36.8942 26.9606C36.9143 26.9038 36.9483 26.8526 36.9932 26.8117C37.3166 26.5823 37.6568 26.3751 37.9999 26.1761C38.1507 26.1063 38.3057 26.0454 38.4639 25.9937C38.9166 25.792 39.0797 25.4769 38.8576 25.0569C38.6848 24.7423 38.4473 24.4666 38.1602 24.2472C37.8057 24.0013 37.4292 23.7876 37.0354 23.6088C36.4338 23.3145 35.9332 22.8533 35.5956 22.2823C34.891 21.17 34.0474 20.1487 33.0845 19.2425C32.5221 18.6898 31.9259 18.1564 31.3523 17.6065C31.3152 17.5631 31.2698 17.5273 31.2186 17.5011C31.1674 17.475 31.1115 17.459 31.054 17.4542C30.9966 17.4493 30.9387 17.4556 30.8837 17.4727C30.8287 17.4898 30.7777 17.5175 30.7336 17.554C29.7855 18.1711 28.7214 18.5958 27.6038 18.8031C25.9391 19.0794 24.3559 18.9274 22.8543 18.1039C21.9235 17.5954 20.9506 17.156 19.9889 16.7001C19.5221 16.4762 19.3758 16.5591 19.3477 17.0427C19.2822 17.9271 19.3658 18.816 19.5952 19.6736C19.7697 20.2759 19.7638 20.9149 19.5783 21.5141C19.1762 22.8654 18.7853 24.2195 18.3832 25.5709C18.3073 25.8224 18.1835 26.06 18.1189 26.3143C18.045 26.7214 17.833 27.0919 17.5174 27.3654C17.2018 27.6389 16.8013 27.7993 16.381 27.8204L14.7135 28Z" fill="#2A2220"/>
</svg>
