<svg width="45" height="28" viewBox="0 0 45 28" fill="none" xmlns="http://www.w3.org/2000/svg">
<path d="M9.78503 12.8134C9.77329 12.7624 9.74893 12.715 9.71411 12.6755C9.67928 12.636 9.63507 12.6055 9.5854 12.5868C9.27707 12.4565 8.95571 12.3584 8.62658 12.2939C8.56191 12.5978 8.50005 12.9018 8.46631 13.2085C8.35545 14.3858 8.01059 15.5302 7.45126 16.5769C6.63584 18.0359 5.76419 19.4645 4.52139 20.6389C3.93927 21.1803 3.54072 21.8845 3.37981 22.6561C3.23641 23.3248 3.00022 23.9741 2.81745 24.6373C2.73966 24.8907 2.70452 25.1548 2.71342 25.4193C2.74716 25.9333 3.17174 26.1986 3.62724 25.972C3.9821 25.7932 4.29597 25.5449 4.54951 25.2425C4.98863 24.7046 5.56352 24.2892 6.21689 24.0377C6.59929 23.911 6.92455 23.6568 7.13634 23.3192C7.31629 23.0015 7.62278 22.9241 7.94051 22.8025C8.56686 22.5834 9.17041 22.3058 9.74286 21.9735C11.3006 21.0092 12.4422 19.6662 13.4263 18.1851C13.1001 17.7706 12.7683 17.3562 12.4253 16.9693C11.1066 15.4716 10.2968 14.1839 9.78503 12.8134Z" fill="#F7F6F5"/>
<path d="M28.7083 19.6165C28.1804 19.7028 27.6463 19.7472 27.1112 19.7491C26.4405 19.7531 25.7721 19.6704 25.1233 19.5032C25.1008 19.7602 25.0839 20.0172 25.0698 20.2714C24.9771 21.7414 24.904 23.2115 24.8983 24.6926C24.9187 24.9674 24.8538 25.2417 24.7123 25.4795C24.5707 25.7173 24.3591 25.9073 24.1054 26.0245C23.6462 26.2885 23.2065 26.584 22.7895 26.9087C22.5871 27.0635 22.3115 27.29 22.5083 27.5553C22.6292 27.7239 22.9413 27.7626 23.1072 27.8316C24.9489 27.5553 26.6894 27.279 28.4327 27.0165C28.6315 26.9938 28.8166 26.9055 28.9576 26.7659C29.0986 26.6263 29.1872 26.4438 29.2088 26.2483C29.2706 25.972 29.2819 25.6653 29.3381 25.3779C29.4324 24.7658 29.5629 24.1596 29.729 23.5624C30.1763 22.1895 30.8039 20.8797 31.596 19.6662C31.8125 19.3374 32.0262 19.0086 32.2399 18.6798L31.9306 18.4034C30.946 19.0079 29.8518 19.4198 28.7083 19.6165Z" fill="#F7F6F5"/>
<path d="M15.6868 27.9975L13.3727 27.7654C13.2404 27.7507 13.1102 27.7211 12.9847 27.6769C12.9382 27.6615 12.8967 27.6344 12.8641 27.5983C12.8316 27.5622 12.8093 27.5184 12.7993 27.4712C12.7894 27.424 12.7922 27.375 12.8074 27.3292C12.8227 27.2834 12.8499 27.2423 12.8863 27.21C13.2834 26.9154 13.6984 26.645 14.1291 26.4003C14.4281 26.2562 14.7384 26.1361 15.057 26.0411C15.2685 25.9808 15.4542 25.8542 15.5856 25.6806C15.7171 25.507 15.7872 25.2959 15.7853 25.0795C15.8106 23.4215 15.9624 21.7387 15.4788 20.1056C15.3347 19.5338 15.084 18.9932 14.7393 18.5112C14.1938 17.8066 13.6511 17.0992 13.0522 16.4305C11.9903 15.2926 11.1481 13.9742 10.5666 12.5399C10.516 12.385 10.432 12.2426 10.3204 12.1225C10.2089 12.0023 10.0722 11.9072 9.91989 11.8435C9.01731 11.4456 8.05006 11.3627 7.08843 11.2909C6.8238 11.3138 6.56512 11.3811 6.32363 11.4898C5.12862 11.838 4.50722 11.6446 3.86051 10.6194C3.67098 10.3129 3.39304 10.0686 3.06197 9.91755C2.45359 9.64309 1.91841 9.23349 1.49862 8.72106C1.26223 8.44076 1.09899 8.10802 1.02305 7.7517C0.9471 7.39537 0.960744 7.02622 1.06279 6.67626C1.19495 6.12361 1.29055 5.57096 1.44519 5.0487C1.59076 4.5776 1.59076 4.07463 1.44519 3.60352C1.33499 3.22676 1.27451 2.83764 1.26524 2.44572C1.26517 2.15256 1.32443 1.86232 1.43957 1.59188C1.6617 1.05305 2.00193 0.923173 2.56428 1.09726C2.62862 1.11324 2.69089 1.13642 2.74986 1.16634C3.51466 1.62227 4.26541 1.59741 5.12019 1.35148C5.80049 1.19448 6.50148 1.14227 7.19809 1.19673C7.72809 1.23255 8.25711 1.11435 8.71926 0.856855C9.20851 0.58053 9.73431 0.345654 10.3135 0.715929C10.3862 0.746689 10.4652 0.760453 10.5443 0.756138C10.6233 0.751822 10.7002 0.729546 10.769 0.69106C12.1046 -0.223575 13.5443 -0.0826496 15.0064 0.273809C15.8161 0.464601 16.5989 0.752285 17.3374 1.13042C19.688 2.32138 19.0244 2.18321 21.6056 1.83228C22.8597 1.65543 24.1053 1.41227 25.3594 1.25753C27.7747 0.961858 30.1562 1.09173 32.4591 1.94557C33.6766 2.39598 34.8828 2.8685 36.0947 3.3272C36.7057 3.55394 37.2591 3.90867 37.7165 4.36677C38.1739 4.82486 38.5243 5.37532 38.7434 5.97992C38.8088 6.13082 38.8605 6.28708 38.898 6.44691C39.0021 6.97745 38.898 7.19298 38.3863 7.48036C37.8746 7.76774 37.8577 7.78432 38.2092 8.26236C38.5606 8.7404 38.9093 9.13555 39.2523 9.58043C39.6154 10.0068 39.9507 10.4554 40.2561 10.9234C41.0007 12.108 41.2627 13.5251 40.99 14.8914C40.855 15.5359 40.8567 16.2008 40.9951 16.8445C41.1335 17.4883 41.4055 18.0971 41.7942 18.6328C42.1501 19.185 42.464 19.7622 42.7333 20.3599C43.127 21.1888 43.4503 22.051 43.858 22.8772C43.9791 23.13 44.036 23.4079 44.0237 23.687C44.0115 23.9662 43.9305 24.2382 43.7877 24.4799C43.4306 25.1817 43.0229 25.8615 42.6321 26.5468C42.5499 26.7084 42.4246 26.8452 42.2697 26.9425C42.1147 27.0398 41.9358 27.094 41.752 27.0994C40.6863 27.1685 39.6235 27.2514 38.5606 27.326C38.4293 27.3467 38.2955 27.3467 38.1642 27.326C38.0379 27.3054 37.9248 27.237 37.8493 27.1353C37.8398 27.0759 37.8454 27.015 37.8655 26.9582C37.8856 26.9013 37.9196 26.8502 37.9645 26.8093C38.2879 26.5799 38.6281 26.3727 38.9712 26.1737C39.122 26.1039 39.2769 26.043 39.4351 25.9914C39.8878 25.7896 40.0509 25.4746 39.8287 25.0546C39.656 24.7401 39.4185 24.4644 39.1314 24.245C38.777 23.9991 38.4005 23.7855 38.0067 23.6067C37.4052 23.3124 36.9047 22.8513 36.5671 22.2803C35.8625 21.1681 35.019 20.1469 34.0562 19.2407C33.4938 18.6881 32.8977 18.1548 32.3241 17.6049C32.287 17.5615 32.2416 17.5257 32.1904 17.4996C32.1393 17.4734 32.0834 17.4575 32.0259 17.4526C31.9684 17.4477 31.9106 17.454 31.8556 17.4711C31.8006 17.4883 31.7496 17.5159 31.7055 17.5524C30.7575 18.1695 29.6934 18.5941 28.576 18.8014C26.9114 19.0777 25.3284 18.9257 23.8269 18.1023C22.8962 17.5938 21.9234 17.1545 20.9617 16.6986C20.495 16.4747 20.3488 16.5576 20.3206 17.0412C20.2551 17.9255 20.3387 18.8143 20.5681 19.6718C20.7426 20.2741 20.7367 20.913 20.5512 21.5121C20.1491 22.8634 19.7583 24.2174 19.3562 25.5686C19.2803 25.82 19.1566 26.0577 19.0919 26.3119C19.0181 26.719 18.8061 27.0895 18.4905 27.363C18.175 27.6364 17.7744 27.7968 17.3542 27.8179L15.6868 27.9975Z" fill="#F7F6F5"/>
</svg>
